<svg width="18" height="16" viewBox="0 0 18 16" fill="none" xmlns="http://www.w3.org/2000/svg">
<path fill-rule="evenodd" clip-rule="evenodd" d="M13.4115 13.4727C12.0924 14.3093 10.562 14.7524 8.99999 14.7499C4.95599 14.7499 1.59149 11.8399 0.885742 7.99993C1.20826 6.25297 2.08696 4.6571 3.39074 3.45043L1.04399 1.10593L2.10524 0.0446777L16.9545 14.8947L15.8932 15.9552L13.4115 13.4727ZM4.45124 4.51243C3.432 5.43912 2.72198 6.65652 2.41724 7.99993C2.89215 10.0779 4.3202 11.8098 6.26966 12.6719C8.21911 13.534 10.4612 13.4252 12.318 12.3784L10.797 10.8574C9.46346 11.6974 7.7261 11.5027 6.61167 10.3882C5.49724 9.27382 5.30248 7.53645 6.14249 6.20293L4.45124 4.51243ZM9.68549 9.74593L7.25399 7.31443C6.98128 8.00863 7.14594 8.79845 7.67333 9.32584C8.20072 9.85323 8.99054 10.0179 9.68474 9.74518L9.68549 9.74593ZM15.6052 11.4439L14.532 10.3714C15.0333 9.6569 15.3903 8.85132 15.5827 7.99993C15.1708 6.19586 14.0367 4.63983 12.4454 3.69538C10.8541 2.75093 8.94491 2.5008 7.16399 3.00343L5.98049 1.81993C6.91574 1.45243 7.93499 1.24993 8.99999 1.24993C13.044 1.24993 16.4085 4.15993 17.1142 7.99993C16.8844 9.2492 16.3679 10.4281 15.6052 11.4439ZM8.79224 4.63093C9.75792 4.57125 10.7028 4.92888 11.3869 5.61302C12.071 6.29715 12.4287 7.242 12.369 8.20768L8.79149 4.63093H8.79224Z" fill="#E5E5E5"/>
</svg>
