<svg width="14" height="14" viewBox="0 0 14 14" fill="none" xmlns="http://www.w3.org/2000/svg">
<path d="M7 0C3.13438 0 0 3.13438 0 7C0 10.8656 3.13438 14 7 14C10.8656 14 14 10.8656 14 7C14 3.13438 10.8656 0 7 0ZM7.99219 5.87187C8.06094 5.87187 8.11719 5.92812 8.11719 5.99687V6.42188C8.11719 6.49062 8.06094 6.54688 7.99219 6.54688H5.86719C5.8625 6.61562 5.8625 6.68906 5.8625 6.7625V7.325H7.99063C8.05938 7.325 8.11563 7.38125 8.11563 7.45V7.875C8.11563 7.94375 8.05938 8 7.99063 8H5.95156C6.19062 8.96875 6.90938 9.54062 7.97969 9.54062C8.29063 9.54062 8.55937 9.52188 8.78906 9.47656C8.86563 9.46094 8.9375 9.52031 8.9375 9.59844V10.2672C8.9375 10.3266 8.89531 10.3766 8.8375 10.3891C8.58906 10.4422 8.30156 10.4688 7.97344 10.4688C6.25781 10.4688 5.11406 9.55 4.84531 8H4.375C4.30625 8 4.25 7.94375 4.25 7.875V7.45C4.25 7.38125 4.30625 7.325 4.375 7.325H4.78281V6.74844C4.78281 6.67969 4.78281 6.61094 4.7875 6.54844H4.375C4.30625 6.54844 4.25 6.49219 4.25 6.42344V5.99844C4.25 5.92969 4.30625 5.87344 4.375 5.87344H4.87031C5.17813 4.40156 6.30781 3.53125 7.97344 3.53125C8.3 3.53125 8.58906 3.56094 8.8375 3.61562C8.89531 3.62812 8.93594 3.67813 8.93594 3.7375V4.40625H8.9375C8.9375 4.48594 8.86563 4.54375 8.7875 4.52812C8.55781 4.48281 8.29063 4.45937 7.97969 4.45937C6.95781 4.45937 6.25469 4.98281 5.98594 5.87187H7.99219Z" fill="#27A658"/>
</svg>
