<svg width="16" height="12" viewBox="0 0 16 12" fill="none" xmlns="http://www.w3.org/2000/svg">
<path fill-rule="evenodd" clip-rule="evenodd" d="M7.99978 0C11.5944 0 14.5851 2.58667 15.2124 6C14.5858 9.41333 11.5944 12 7.99978 12C4.40511 12 1.41444 9.41333 0.787109 6C1.41378 2.58667 4.40511 0 7.99978 0ZM7.99978 10.6667C10.7999 10.6661 13.2277 8.72979 13.8511 6C13.2254 3.27247 10.7982 1.33902 7.99978 1.33902C5.20139 1.33902 2.77417 3.27247 2.14844 6C2.77189 8.72979 5.19969 10.6661 7.99978 10.6667ZM7.99978 9C6.34292 9 4.99978 7.65685 4.99978 6C4.99978 4.34315 6.34292 3 7.99978 3C9.65663 3 10.9998 4.34315 10.9998 6C10.9998 7.65685 9.65663 9 7.99978 9ZM7.99978 7.66667C8.92025 7.66667 9.66644 6.92048 9.66644 6C9.66644 5.07953 8.92025 4.33333 7.99978 4.33333C7.0793 4.33333 6.33311 5.07953 6.33311 6C6.33311 6.92048 7.0793 7.66667 7.99978 7.66667Z" fill="#8585F6"/>
</svg>
