<svg width="12" height="14" viewBox="0 0 12 14" fill="none" xmlns="http://www.w3.org/2000/svg">
<path d="M3.19998 7.0001C3.19916 6.81711 3.16228 6.63608 3.09147 6.46734C3.02066 6.2986 2.91729 6.14547 2.78728 6.0167C2.65727 5.88792 2.50316 5.78602 2.33376 5.71682C2.16435 5.64763 1.98297 5.61248 1.79998 5.6134C1.02718 5.6134 0.399981 6.2343 0.399981 7.0001C0.400899 7.18304 0.437838 7.364 0.508691 7.53265C0.579545 7.70131 0.682924 7.85436 0.812927 7.98306C0.942929 8.11176 1.09701 8.2136 1.26637 8.28275C1.43573 8.35191 1.61705 8.38703 1.79998 8.3861C2.57348 8.3861 3.19998 7.7659 3.19998 7.0001ZM4.76938 4.0601L3.77958 5.0401C4.03933 5.29624 4.24559 5.60144 4.38638 5.93797C4.52716 6.2745 4.59966 6.63566 4.59966 7.00045C4.59966 7.36525 4.52716 7.72641 4.38638 8.06294C4.24559 8.39947 4.03933 8.70467 3.77958 8.9608L4.76938 9.9401C5.15898 9.556 5.46835 9.09829 5.67951 8.59357C5.89067 8.08886 5.99941 7.54721 5.99941 7.0001C5.99941 6.453 5.89067 5.91135 5.67951 5.40664C5.46835 4.90192 5.15898 4.44421 4.76938 4.0601ZM6.75038 2.1001L5.76058 3.0801C6.27994 3.59224 6.69234 4.20247 6.97382 4.87536C7.25531 5.54825 7.40026 6.27036 7.40026 6.99975C7.40026 7.72914 7.25531 8.45126 6.97382 9.12415C6.69234 9.79704 6.27994 10.4073 5.76058 10.9194L6.75038 11.9001C7.39962 11.2599 7.91516 10.497 8.26704 9.65583C8.61892 8.81464 8.80013 7.91192 8.80013 7.0001C8.80013 6.08829 8.61892 5.18556 8.26704 4.34438C7.91516 3.5032 7.39962 2.74033 6.75038 2.1001ZM8.72998 0.139404L7.74018 1.1194C8.5194 1.88768 9.13815 2.80316 9.56048 3.81265C9.98281 4.82213 10.2003 5.90549 10.2003 6.99975C10.2003 8.09402 9.98281 9.17738 9.56048 10.1869C9.13815 11.1963 8.5194 12.1118 7.74018 12.8801L8.72998 13.8601C9.63906 12.9638 10.3609 11.8957 10.8537 10.718C11.3464 9.5403 11.6001 8.27639 11.6001 6.99975C11.6001 5.72312 11.3464 4.45921 10.8537 3.28149C10.3609 2.10377 9.63906 1.03571 8.72998 0.139404Z" fill="#FF6F4C"/>
</svg>
