<svg width="14" height="14" viewBox="0 0 14 14" fill="none" xmlns="http://www.w3.org/2000/svg">
<path d="M2.26821 12.0115C2.12092 12.0115 1.98837 11.8936 1.98837 11.7316C1.98837 11.4665 2.01782 11.0099 2.10619 10.4944L1.31085 9.68433C0.147286 11.0541 0.0147286 13.013 0 13.72C0 13.8673 0.117829 13.9998 0.279844 13.9998C0.986818 13.9851 2.94573 13.8525 4.31549 12.689L3.50541 11.8936C2.98991 11.982 2.53332 11.9967 2.26821 12.0115Z" fill="#6A6AF4"/>
<path d="M10.8697 8.94808L10.8402 8.87443C14.1394 5.38374 14.0805 1.77523 13.9332 0.552749C13.9038 0.287634 13.6976 0.0814325 13.4324 0.0519752C12.21 -0.0953112 8.60145 -0.154226 5.11076 3.14499L5.05184 3.13026C3.90301 2.60003 2.5627 2.85042 1.66426 3.73414L0.382864 5.01553C0.0882913 5.3101 0.176663 5.79615 0.544879 5.95816L2.62162 6.91552L1.91464 8.0349C1.75263 8.30001 1.78208 8.6535 2.01774 8.88916L5.11076 11.9822C5.33169 12.2031 5.68518 12.2473 5.96502 12.0853L7.0844 11.3783L8.04176 13.455C8.2185 13.8233 8.70455 13.9116 8.98439 13.6171L10.2658 12.3357C11.1642 11.4372 11.3999 10.0822 10.8697 8.94808ZM7.93866 6.06126C7.32005 5.44266 7.32005 4.45584 7.93866 3.83724C8.55726 3.21863 9.54408 3.21863 10.1627 3.83724C10.7813 4.45584 10.7666 5.44266 10.1627 6.06126C9.55881 6.66514 8.55726 6.66514 7.93866 6.06126Z" fill="#8585F6"/>
</svg>
